<svg version="1.1" id="Layer_1" xmlns="http://www.w3.org/2000/svg" xmlns:xlink="http://www.w3.org/1999/xlink" x="0px" y="0px"
	 width="100%" viewBox="0 0 417 417" enable-background="new 0 0 417 417" xml:space="preserve">
<path fill="#011444" opacity="1.000000" stroke="none" 
	d="
M235.000000,418.000000 
	C156.666672,418.000000 78.833351,418.000000 1.000021,418.000000 
	C1.000014,279.000031 1.000014,140.000046 1.000007,1.000058 
	C139.999954,1.000039 278.999908,1.000039 417.999908,1.000019 
	C417.999939,139.999939 417.999939,278.999878 417.999969,417.999908 
	C357.166656,418.000000 296.333344,418.000000 235.000000,418.000000 
M124.970406,231.866516 
	C124.970406,231.866516 124.985771,231.773926 125.922897,231.832108 
	C156.164948,231.832108 186.406982,231.832108 216.475006,231.832108 
	C216.475006,200.779114 216.475006,170.524506 216.475006,140.242371 
	C185.862701,140.242371 155.610840,140.242371 124.792175,140.242371 
	C124.792175,150.491730 124.792175,160.452118 123.884399,170.429489 
	C103.958031,170.429489 84.031662,170.429489 64.035919,170.429489 
	C64.035919,191.215378 64.035919,211.412140 64.035919,231.949631 
	C72.390404,231.949631 80.373520,231.949631 88.365921,232.893173 
	C88.365921,244.509064 88.365921,256.124939 88.365921,267.732361 
	C100.893837,267.732361 112.776527,267.732361 124.886635,267.732361 
	C124.886635,255.525986 124.886635,243.717392 124.970406,231.866516 
M154.445328,257.287628 
	C157.658707,252.078186 156.030151,247.469742 150.600266,247.059052 
	C146.338699,246.736710 142.033264,246.994370 137.516998,246.994370 
	C137.516998,255.143692 137.516998,262.871460 137.516998,270.995941 
	C142.214981,270.995941 146.690063,271.266907 151.117676,270.924255 
	C156.149368,270.534912 158.585632,265.149536 155.941483,260.865479 
	C155.315979,259.852020 154.626648,258.877960 154.445328,257.287628 
M268.630188,260.777466 
	C270.891968,260.777466 273.153717,260.777466 275.785400,260.777466 
	C275.785400,264.545685 275.785400,267.644775 275.785400,271.067322 
	C277.901428,270.970673 279.621735,270.892120 281.253113,270.817627 
	C281.253113,262.626129 281.253113,254.914536 281.253113,247.143921 
	C279.279175,247.143921 277.650909,247.143921 275.676697,247.143921 
	C275.676697,250.107559 275.676697,252.892334 275.676697,255.907516 
	C272.289429,255.907516 269.250397,255.907516 265.843994,255.907516 
	C265.843994,252.834381 265.843994,250.074951 265.843994,247.319244 
	C263.766785,247.319244 262.066742,247.319244 260.457397,247.319244 
	C260.457397,255.401260 260.457397,263.121979 260.457397,270.788177 
	C262.389923,270.788177 263.986969,270.788177 265.948914,270.788177 
	C265.948914,268.747040 265.729401,266.914703 266.015625,265.165131 
	C266.262177,263.658173 267.085175,262.245514 268.630188,260.777466 
M188.029938,271.029175 
	C192.323883,272.301666 192.754013,268.686279 194.022980,266.076721 
	C198.174164,266.093140 203.089218,264.079987 203.907379,270.843872 
	C205.910782,270.843872 207.700867,270.843872 209.882370,270.843872 
	C207.344025,263.712158 205.053650,256.817352 202.356842,250.085358 
	C201.812775,248.727219 199.867020,247.556442 198.322876,247.059586 
	C195.924637,246.287918 194.443710,247.452744 193.707230,250.087677 
	C192.636551,253.918350 190.966125,257.577240 189.763336,261.376434 
	C188.770264,264.513245 188.084518,267.747406 188.029938,271.029175 
M162.111267,263.458893 
	C161.301224,265.804260 160.491180,268.149628 159.685806,270.481445 
	C164.289017,272.397430 166.209564,270.013916 167.085159,266.024475 
	C171.321884,266.159973 176.275650,264.062988 177.071213,270.836182 
	C179.078796,270.836182 180.859985,270.836182 183.072388,270.836182 
	C180.135452,262.662781 177.313217,254.808563 174.563858,247.157120 
	C172.056900,247.157120 170.101776,247.157120 168.023239,247.157120 
	C166.097931,252.424530 164.220932,257.559753 162.111267,263.458893 
M237.963379,258.575043 
	C239.586456,256.095123 240.801178,253.084686 243.019073,251.377533 
	C244.006226,250.617691 248.039551,251.864807 248.897430,253.284409 
	C250.818710,256.463837 252.941452,256.439087 255.803741,255.588165 
	C254.110321,248.974274 249.180206,245.512573 243.010254,246.475510 
	C235.974716,247.573532 231.766129,252.676361 232.147751,259.646088 
	C232.520584,266.455200 237.743469,271.597687 244.406006,271.715607 
	C250.368622,271.821106 254.794556,268.063599 255.610809,261.563385 
	C253.606781,262.091370 250.960083,262.000549 250.247650,263.129883 
	C248.395645,266.065765 245.870758,268.238831 243.024338,266.602264 
	C240.714066,265.273987 239.606491,261.853851 237.963379,258.575043 
M318.387634,266.972778 
	C313.069702,267.217194 315.748993,263.585968 315.217621,260.922455 
	C317.949921,260.922455 320.262726,260.882935 322.573578,260.932800 
	C325.265930,260.990845 327.910950,261.084869 326.000702,256.474731 
	C322.587494,256.474731 319.023102,256.474731 315.328979,256.474731 
	C315.328979,254.423904 315.328979,252.960419 315.328979,251.026566 
	C317.848938,251.026566 320.321716,251.033463 322.794403,251.025055 
	C327.321594,251.009674 327.321594,251.005905 327.027374,247.195053 
	C321.281128,247.195053 315.523773,247.195053 309.536743,247.195053 
	C309.536743,255.153076 309.536743,262.888855 309.536743,270.766052 
	C315.720215,270.766052 321.638550,270.766052 327.556885,270.766052 
	C327.813477,270.318481 328.070068,269.870880 328.326691,269.423309 
	C327.181946,268.606903 326.135071,267.372253 324.868622,267.075867 
	C323.130676,266.669098 321.226318,266.973602 318.387634,266.972778 
M303.642944,247.118347 
	C297.901642,247.118347 292.160309,247.118347 286.465027,247.118347 
	C286.465027,255.348511 286.465027,263.062225 286.465027,270.715729 
	C292.702637,270.715729 298.612823,270.715729 305.665161,270.715729 
	C302.069733,263.941193 295.967957,269.003326 292.157898,266.234833 
	C292.157898,264.777649 292.157898,263.041412 292.157898,260.921906 
	C294.832458,260.921906 297.289490,260.955902 299.745239,260.914154 
	C303.689697,260.847137 303.689331,260.825989 302.637695,256.619629 
	C299.268402,256.619629 295.825500,256.619629 292.272583,256.619629 
	C292.272583,254.623215 292.272583,252.912384 292.272583,251.025726 
	C295.583008,251.025726 298.570160,250.874039 301.534302,251.070236 
	C304.261627,251.250732 304.611633,249.889389 303.642944,247.118347 
M225.493576,251.027420 
	C230.940369,250.990509 230.940369,250.990509 230.095245,247.159668 
	C223.331085,247.159668 216.566940,247.159668 209.382324,247.159668 
	C209.382324,248.268173 209.180511,249.946609 209.413437,250.009262 
	C211.832764,250.660187 214.322052,251.051041 217.220276,251.594421 
	C217.220276,257.896362 217.220276,264.293610 217.220276,270.658569 
	C219.350143,270.658569 221.046356,270.658569 222.932938,270.658569 
	C222.932938,264.998962 222.839096,259.701019 223.007294,254.411423 
	C223.043579,253.270355 224.024170,252.159317 225.493576,251.027420 
M344.932709,263.424377 
	C344.932709,259.343964 344.932709,255.263565 344.932709,251.228424 
	C352.908386,250.822540 352.908386,250.822540 352.123871,247.308105 
	C345.193115,247.308105 338.298004,247.308105 331.268219,247.308105 
	C331.257446,253.922867 336.782349,249.346375 339.208130,252.092621 
	C339.208130,257.883575 339.208130,264.276062 339.208130,270.670593 
	C341.333679,270.670593 343.028778,270.670593 344.932709,270.670593 
	C344.932709,268.344330 344.932709,266.370514 344.932709,263.424377 
z"/>
<path fill="#4EA5FE" opacity="1.000000" stroke="none" 
	d="
M124.792175,170.412491 
	C124.792175,160.452118 124.792175,150.491730 124.792175,140.242371 
	C155.610840,140.242371 185.862701,140.242371 216.475006,140.242371 
	C216.475006,170.524506 216.475006,200.779114 216.475006,231.832108 
	C186.406982,231.832108 156.164948,231.832108 125.439911,231.350830 
	C124.902008,210.717209 124.847092,190.564850 124.792175,170.412491 
z"/>
<path fill="#F34FB5" opacity="1.000000" stroke="none" 
	d="
M124.338287,170.420990 
	C124.847092,190.564850 124.902008,210.717209 124.971344,231.321747 
	C124.985771,231.773926 124.970406,231.866516 124.469513,231.836929 
	C112.097961,231.854782 100.227303,231.902206 88.356644,231.949631 
	C80.373520,231.949631 72.390404,231.949631 64.035919,231.949631 
	C64.035919,211.412140 64.035919,191.215378 64.035919,170.429489 
	C84.031662,170.429489 103.958031,170.429489 124.338287,170.420990 
z"/>
<path fill="#9CCE5A" opacity="1.000000" stroke="none" 
	d="
M88.361282,232.421402 
	C100.227303,231.902206 112.097961,231.854782 124.427628,231.858063 
	C124.886635,243.717392 124.886635,255.525986 124.886635,267.732361 
	C112.776527,267.732361 100.893837,267.732361 88.365921,267.732361 
	C88.365921,256.124939 88.365921,244.509064 88.361282,232.421402 
z"/>
<path fill="#EEF0F3" opacity="1.000000" stroke="none" 
	d="
M154.205994,257.586731 
	C154.626648,258.877960 155.315979,259.852020 155.941483,260.865479 
	C158.585632,265.149536 156.149368,270.534912 151.117676,270.924255 
	C146.690063,271.266907 142.214981,270.995941 137.516998,270.995941 
	C137.516998,262.871460 137.516998,255.143692 137.516998,246.994370 
	C142.033264,246.994370 146.338699,246.736710 150.600266,247.059052 
	C156.030151,247.469742 157.658707,252.078186 154.205994,257.586731 
M148.793350,260.608643 
	C147.048492,260.506683 145.303619,260.404755 143.447388,260.296295 
	C143.447388,262.833252 143.447388,264.866302 143.447388,267.786224 
	C146.215103,266.983612 148.563309,266.565704 150.559830,265.493164 
	C150.941742,265.287994 149.937805,262.503174 148.793350,260.608643 
M148.365479,250.947556 
	C146.772980,250.947556 145.180481,250.947556 143.397766,250.947556 
	C143.397766,252.868942 143.397766,254.389694 143.397766,256.721649 
	C145.917557,256.127167 148.040405,255.748749 150.010864,254.979858 
	C150.217255,254.899323 149.523544,252.512024 148.365479,250.947556 
z"/>
<path fill="#EAECF0" opacity="1.000000" stroke="none" 
	d="
M268.141724,260.784302 
	C267.085175,262.245514 266.262177,263.658173 266.015625,265.165131 
	C265.729401,266.914703 265.948914,268.747040 265.948914,270.788177 
	C263.986969,270.788177 262.389923,270.788177 260.457397,270.788177 
	C260.457397,263.121979 260.457397,255.401260 260.457397,247.319244 
	C262.066742,247.319244 263.766785,247.319244 265.843994,247.319244 
	C265.843994,250.074951 265.843994,252.834381 265.843994,255.907516 
	C269.250397,255.907516 272.289429,255.907516 275.676697,255.907516 
	C275.676697,252.892334 275.676697,250.107559 275.676697,247.143921 
	C277.650909,247.143921 279.279175,247.143921 281.253113,247.143921 
	C281.253113,254.914536 281.253113,262.626129 281.253113,270.817627 
	C279.621735,270.892120 277.901428,270.970673 275.785400,271.067322 
	C275.785400,267.644775 275.785400,264.545685 275.785400,260.777466 
	C273.153717,260.777466 270.891968,260.777466 268.141724,260.784302 
z"/>
<path fill="#EAECF0" opacity="1.000000" stroke="none" 
	d="
M187.646271,270.983795 
	C188.084518,267.747406 188.770264,264.513245 189.763336,261.376434 
	C190.966125,257.577240 192.636551,253.918350 193.707230,250.087677 
	C194.443710,247.452744 195.924637,246.287918 198.322876,247.059586 
	C199.867020,247.556442 201.812775,248.727219 202.356842,250.085358 
	C205.053650,256.817352 207.344025,263.712158 209.882370,270.843872 
	C207.700867,270.843872 205.910782,270.843872 203.907379,270.843872 
	C203.089218,264.079987 198.174164,266.093140 194.022980,266.076721 
	C192.754013,268.686279 192.323883,272.301666 187.646271,270.983795 
z"/>
<path fill="#EAECF0" opacity="1.000000" stroke="none" 
	d="
M162.227600,263.076965 
	C164.220932,257.559753 166.097931,252.424530 168.023239,247.157120 
	C170.101776,247.157120 172.056900,247.157120 174.563858,247.157120 
	C177.313217,254.808563 180.135452,262.662781 183.072388,270.836182 
	C180.859985,270.836182 179.078796,270.836182 177.071213,270.836182 
	C176.275650,264.062988 171.321884,266.159973 167.085159,266.024475 
	C166.209564,270.013916 164.289017,272.397430 159.685806,270.481445 
	C160.491180,268.149628 161.301224,265.804260 162.227600,263.076965 
z"/>
<path fill="#EAECF0" opacity="1.000000" stroke="none" 
	d="
M237.964447,258.968262 
	C239.606491,261.853851 240.714066,265.273987 243.024338,266.602264 
	C245.870758,268.238831 248.395645,266.065765 250.247650,263.129883 
	C250.960083,262.000549 253.606781,262.091370 255.610809,261.563385 
	C254.794556,268.063599 250.368622,271.821106 244.406006,271.715607 
	C237.743469,271.597687 232.520584,266.455200 232.147751,259.646088 
	C231.766129,252.676361 235.974716,247.573532 243.010254,246.475510 
	C249.180206,245.512573 254.110321,248.974274 255.803741,255.588165 
	C252.941452,256.439087 250.818710,256.463837 248.897430,253.284409 
	C248.039551,251.864807 244.006226,250.617691 243.019073,251.377533 
	C240.801178,253.084686 239.586456,256.095123 237.964447,258.968262 
z"/>
<path fill="#F1F2F5" opacity="1.000000" stroke="none" 
	d="
M318.890442,266.973053 
	C321.226318,266.973602 323.130676,266.669098 324.868622,267.075867 
	C326.135071,267.372253 327.181946,268.606903 328.326691,269.423309 
	C328.070068,269.870880 327.813477,270.318481 327.556885,270.766052 
	C321.638550,270.766052 315.720215,270.766052 309.536743,270.766052 
	C309.536743,262.888855 309.536743,255.153076 309.536743,247.195053 
	C315.523773,247.195053 321.281128,247.195053 327.027374,247.195053 
	C327.321594,251.005905 327.321594,251.009674 322.794403,251.025055 
	C320.321716,251.033463 317.848938,251.026566 315.328979,251.026566 
	C315.328979,252.960419 315.328979,254.423904 315.328979,256.474731 
	C319.023102,256.474731 322.587494,256.474731 326.000702,256.474731 
	C327.910950,261.084869 325.265930,260.990845 322.573578,260.932800 
	C320.262726,260.882935 317.949921,260.922455 315.217621,260.922455 
	C315.748993,263.585968 313.069702,267.217194 318.890442,266.973053 
z"/>
<path fill="#F1F2F5" opacity="1.000000" stroke="none" 
	d="
M303.927002,247.430634 
	C304.611633,249.889389 304.261627,251.250732 301.534302,251.070236 
	C298.570160,250.874039 295.583008,251.025726 292.272583,251.025726 
	C292.272583,252.912384 292.272583,254.623215 292.272583,256.619629 
	C295.825500,256.619629 299.268402,256.619629 302.637695,256.619629 
	C303.689331,260.825989 303.689697,260.847137 299.745239,260.914154 
	C297.289490,260.955902 294.832458,260.921906 292.157898,260.921906 
	C292.157898,263.041412 292.157898,264.777649 292.157898,266.234833 
	C295.967957,269.003326 302.069733,263.941193 305.665161,270.715729 
	C298.612823,270.715729 292.702637,270.715729 286.465027,270.715729 
	C286.465027,263.062225 286.465027,255.348511 286.465027,247.118347 
	C292.160309,247.118347 297.901642,247.118347 303.927002,247.430634 
z"/>
<path fill="#F1F2F5" opacity="1.000000" stroke="none" 
	d="
M225.031677,251.030930 
	C224.024170,252.159317 223.043579,253.270355 223.007294,254.411423 
	C222.839096,259.701019 222.932938,264.998962 222.932938,270.658569 
	C221.046356,270.658569 219.350143,270.658569 217.220276,270.658569 
	C217.220276,264.293610 217.220276,257.896362 217.220276,251.594421 
	C214.322052,251.051041 211.832764,250.660187 209.413437,250.009262 
	C209.180511,249.946609 209.382324,248.268173 209.382324,247.159668 
	C216.566940,247.159668 223.331085,247.159668 230.096130,247.164856 
	C230.940369,250.990509 230.940369,250.990509 225.031677,251.030930 
z"/>
<path fill="#F1F2F5" opacity="1.000000" stroke="none" 
	d="
M344.932709,263.910522 
	C344.932709,266.370514 344.932709,268.344330 344.932709,270.670593 
	C343.028778,270.670593 341.333679,270.670593 339.208130,270.670593 
	C339.208130,264.276062 339.208130,257.883575 339.208130,252.092621 
	C336.782349,249.346375 331.257446,253.922867 331.268219,247.308105 
	C338.298004,247.308105 345.193115,247.308105 352.123871,247.308105 
	C352.908386,250.822540 352.908386,250.822540 344.932709,251.228424 
	C344.932709,255.263565 344.932709,259.343964 344.932709,263.910522 
z"/>
<path fill="#172854" opacity="1.000000" stroke="none" 
	d="
M149.183289,260.758545 
	C149.937805,262.503174 150.941742,265.287994 150.559830,265.493164 
	C148.563309,266.565704 146.215103,266.983612 143.447388,267.786224 
	C143.447388,264.866302 143.447388,262.833252 143.447388,260.296295 
	C145.303619,260.404755 147.048492,260.506683 149.183289,260.758545 
z"/>
<path fill="#172854" opacity="1.000000" stroke="none" 
	d="
M148.806458,251.071259 
	C149.523544,252.512024 150.217255,254.899323 150.010864,254.979858 
	C148.040405,255.748749 145.917557,256.127167 143.397766,256.721649 
	C143.397766,254.389694 143.397766,252.868942 143.397766,250.947556 
	C145.180481,250.947556 146.772980,250.947556 148.806458,251.071259 
z"/>
</svg>