<?xml version="1.0" encoding="UTF-8"?>
<svg xmlns="http://www.w3.org/2000/svg" xmlns:xlink="http://www.w3.org/1999/xlink" width="48px" height="44px" viewBox="0 0 47 44" version="1.1">
<g id="surface1">
<path style=" stroke:none;fill-rule:nonzero;fill:rgb(99.607843%,99.607843%,100%);fill-opacity:1;" d="M 28.738281 44.082031 C 19.160156 44.082031 9.621094 44.082031 0.078125 44.082031 C 0.078125 29.414062 0.078125 14.746094 0.078125 0.0820312 C 15.746094 0.0820312 31.414062 0.0820312 47.078125 0.0820312 C 47.078125 14.746094 47.078125 29.414062 47.078125 44.082031 C 40.980469 44.082031 34.878906 44.082031 28.738281 44.082031 M 24.539062 30.390625 C 25.011719 30.335938 25.488281 30.3125 25.957031 30.226562 C 29.175781 29.636719 31.953125 28.191406 34.160156 25.699219 C 34.574219 25.230469 34.957031 24.726562 35.277344 24.1875 C 35.597656 23.640625 35.46875 23.246094 34.96875 22.855469 C 34.800781 22.726562 34.632812 22.59375 34.464844 22.460938 C 33.703125 21.859375 32.945312 21.25 32.171875 20.660156 C 31.640625 20.257812 31.246094 20.332031 30.839844 20.851562 C 30.621094 21.136719 30.402344 21.425781 30.152344 21.6875 C 27.921875 24.0625 25.207031 25.164062 22.015625 24.527344 C 16.835938 23.496094 13.941406 18.5625 15.296875 13.425781 C 16.582031 8.546875 21.421875 6.230469 25.761719 7.09375 C 27.726562 7.480469 29.410156 8.398438 30.792969 9.886719 C 31.246094 10.375 31.667969 10.425781 32.203125 10.03125 C 33.152344 9.324219 34.089844 8.597656 35.011719 7.855469 C 35.523438 7.441406 35.578125 6.890625 35.179688 6.355469 C 34.96875 6.066406 34.699219 5.820312 34.4375 5.574219 C 30.898438 2.277344 26.746094 0.855469 21.976562 1.453125 C 18.152344 1.929688 14.957031 3.667969 12.519531 6.722656 C 9.796875 10.136719 8.878906 14.074219 9.566406 18.390625 C 9.953125 20.828125 10.949219 23.015625 12.488281 24.929688 C 12.707031 25.199219 12.746094 25.476562 12.691406 25.792969 C 12.492188 26.957031 12.292969 28.125 12.09375 29.289062 C 12.039062 29.609375 12.042969 29.914062 12.332031 30.128906 C 12.601562 30.324219 12.878906 30.273438 13.15625 30.136719 C 14.113281 29.675781 15.074219 29.226562 16.023438 28.753906 C 16.359375 28.585938 16.664062 28.585938 17.003906 28.757812 C 19.351562 29.960938 21.839844 30.507812 24.539062 30.390625 M 19.277344 19.21875 C 19.257812 19.015625 19.214844 18.8125 19.226562 18.617188 C 19.269531 17.988281 18.988281 17.34375 19.34375 16.726562 C 19.40625 16.613281 19.378906 16.375 19.300781 16.265625 C 18.914062 15.71875 19.179688 15.140625 19.109375 14.515625 C 19.289062 14.601562 19.394531 14.652344 19.5 14.707031 C 20.707031 15.34375 21.914062 15.980469 23.121094 16.625 C 23.722656 16.949219 24.328125 17.007812 24.941406 16.675781 C 26.722656 15.703125 28.503906 14.730469 30.28125 13.746094 C 30.871094 13.421875 30.867188 12.878906 30.265625 12.554688 C 28.421875 11.554688 26.574219 10.566406 24.726562 9.574219 C 24.273438 9.328125 23.804688 9.316406 23.355469 9.558594 C 21.507812 10.546875 19.664062 11.542969 17.828125 12.554688 C 17.289062 12.855469 17.261719 13.535156 17.800781 13.820312 C 18.195312 14.03125 18.277344 14.296875 18.246094 14.695312 C 18.21875 15.070312 18.234375 15.449219 18.214844 15.824219 C 18.210938 15.925781 18.183594 16.042969 18.128906 16.121094 C 17.929688 16.410156 17.917969 16.6875 18.109375 16.984375 C 18.164062 17.066406 18.203125 17.183594 18.195312 17.28125 C 18.160156 17.886719 18.140625 18.492188 18.0625 19.09375 C 17.953125 19.917969 17.929688 19.914062 18.746094 19.902344 C 19.335938 19.890625 19.335938 19.890625 19.277344 19.21875 M 22.527344 17.132812 C 21.679688 16.671875 20.832031 16.214844 19.914062 15.71875 C 19.914062 16.457031 19.917969 17.109375 19.914062 17.765625 C 19.90625 18.523438 20.226562 19.109375 20.804688 19.566406 C 22.671875 21.039062 25.503906 21.050781 27.382812 19.59375 C 27.921875 19.179688 28.316406 18.664062 28.351562 17.953125 C 28.382812 17.242188 28.375 16.527344 28.378906 15.8125 C 28.378906 15.769531 28.34375 15.722656 28.320312 15.664062 C 28.167969 15.742188 28.039062 15.804688 27.914062 15.871094 C 26.992188 16.371094 26.078125 16.886719 25.148438 17.371094 C 24.71875 17.59375 24.257812 17.832031 23.761719 17.6875 C 23.351562 17.570312 22.972656 17.335938 22.527344 17.132812 M 6.734375 40.09375 C 6.773438 40.082031 6.8125 40.066406 6.851562 40.058594 C 7.726562 39.847656 8.171875 39.359375 8.242188 38.539062 C 8.316406 37.707031 8.007812 37.214844 7.167969 36.824219 C 7.148438 36.816406 7.140625 36.785156 7.117188 36.742188 C 7.738281 36.359375 7.933594 35.785156 7.753906 35.085938 C 7.601562 34.5 7.136719 34.199219 6.613281 34.167969 C 5.628906 34.101562 4.640625 34.148438 3.644531 34.148438 C 3.644531 36.136719 3.644531 38.113281 3.644531 40.105469 C 4.660156 40.105469 5.664062 40.105469 6.734375 40.09375 M 30.574219 38.21875 C 30.570312 37.828125 30.578125 37.433594 30.566406 37.042969 C 30.546875 36.414062 30.367188 35.84375 29.734375 35.617188 C 29.082031 35.378906 28.457031 35.46875 27.945312 36.003906 C 27.890625 36.0625 27.816406 36.109375 27.699219 36.203125 C 27.699219 35.355469 27.699219 34.578125 27.699219 33.785156 C 27.316406 33.785156 26.964844 33.785156 26.609375 33.785156 C 26.609375 35.902344 26.609375 38 26.609375 40.09375 C 26.984375 40.09375 27.332031 40.09375 27.703125 40.09375 C 27.703125 39.285156 27.691406 38.507812 27.710938 37.726562 C 27.71875 37.476562 27.765625 37.214844 27.859375 36.988281 C 28.03125 36.574219 28.46875 36.390625 28.921875 36.488281 C 29.277344 36.5625 29.445312 36.8125 29.453125 37.320312 C 29.460938 37.683594 29.457031 38.046875 29.457031 38.410156 C 29.457031 38.972656 29.457031 39.53125 29.457031 40.09375 C 29.851562 40.09375 30.203125 40.09375 30.574219 40.09375 C 30.574219 39.480469 30.574219 38.886719 30.574219 38.21875 M 33.390625 38.109375 C 34.136719 38.109375 34.882812 38.109375 35.640625 38.109375 C 35.640625 37.726562 35.667969 37.414062 35.636719 37.109375 C 35.582031 36.628906 35.410156 36.203125 35.015625 35.890625 C 34.070312 35.148438 32.402344 35.46875 31.863281 36.546875 C 31.40625 37.464844 31.40625 38.433594 31.949219 39.324219 C 32.453125 40.152344 33.296875 40.242188 34.160156 40.191406 C 34.824219 40.152344 35.429688 39.667969 35.574219 39.089844 C 35.332031 38.941406 35.089844 38.789062 34.851562 38.640625 C 34.378906 39.210938 33.835938 39.371094 33.285156 39.132812 C 32.90625 38.96875 32.703125 38.585938 32.765625 38.109375 C 32.945312 38.109375 33.128906 38.109375 33.390625 38.109375 M 39.414062 35.652344 C 38.800781 35.460938 38.1875 35.429688 37.59375 35.699219 C 36.546875 36.167969 36.089844 37.582031 36.535156 38.867188 C 36.933594 40.003906 38.074219 40.378906 39.261719 40.132812 C 39.8125 40.015625 40.1875 39.65625 40.449219 39.125 C 40.171875 38.949219 39.917969 38.792969 39.675781 38.640625 C 39.199219 39.207031 38.6875 39.363281 38.132812 39.140625 C 37.746094 38.988281 37.546875 38.628906 37.578125 38.109375 C 37.707031 38.109375 37.835938 38.109375 37.964844 38.109375 C 38.695312 38.109375 39.421875 38.117188 40.148438 38.101562 C 40.257812 38.101562 40.445312 38.007812 40.46875 37.921875 C 40.699219 37.066406 40.25 36.082031 39.414062 35.652344 M 11.484375 35.554688 C 10.570312 35.4375 9.738281 35.585938 9.074219 36.328125 C 9.253906 36.589844 9.410156 36.816406 9.578125 37.054688 C 10.039062 36.597656 10.542969 36.339844 11.148438 36.457031 C 11.296875 36.484375 11.496094 36.695312 11.511719 36.839844 C 11.523438 36.976562 11.351562 37.210938 11.210938 37.265625 C 10.882812 37.394531 10.519531 37.429688 10.175781 37.527344 C 9.753906 37.648438 9.335938 37.789062 9.113281 38.226562 C 8.828125 38.792969 8.996094 39.601562 9.472656 39.941406 C 10.042969 40.347656 10.984375 40.261719 11.40625 39.765625 C 11.476562 39.683594 11.542969 39.59375 11.628906 39.488281 C 11.714844 39.636719 11.769531 39.746094 11.839844 39.839844 C 12.058594 40.117188 12.675781 40.261719 13.054688 40.097656 C 13.421875 39.933594 13.105469 39.621094 13.171875 39.386719 C 13.183594 39.34375 13.148438 39.289062 13.132812 39.242188 C 12.648438 39.214844 12.636719 39.203125 12.632812 38.726562 C 12.628906 38.117188 12.640625 37.511719 12.625 36.90625 C 12.605469 36.144531 12.289062 35.761719 11.484375 35.554688 M 15.667969 36.421875 C 15.949219 36.449219 16.207031 36.507812 16.21875 36.867188 C 16.234375 37.21875 15.957031 37.269531 15.71875 37.335938 C 15.324219 37.445312 14.914062 37.503906 14.53125 37.640625 C 13.832031 37.898438 13.554688 38.410156 13.679688 39.121094 C 13.796875 39.78125 14.257812 40.164062 14.972656 40.195312 C 15.542969 40.222656 15.996094 40.011719 16.300781 39.464844 C 16.378906 39.605469 16.417969 39.691406 16.472656 39.769531 C 16.695312 40.109375 17.285156 40.28125 17.726562 40.097656 C 18.125 39.933594 17.773438 39.601562 17.851562 39.359375 C 17.863281 39.328125 17.828125 39.285156 17.808594 39.230469 C 17.367188 39.320312 17.300781 39.066406 17.3125 38.695312 C 17.328125 38.078125 17.324219 37.457031 17.304688 36.835938 C 17.28125 36.148438 16.949219 35.6875 16.28125 35.601562 C 15.773438 35.535156 15.230469 35.574219 14.726562 35.691406 C 14.375 35.773438 14.066406 36.058594 13.714844 36.269531 C 13.9375 36.589844 14.09375 36.816406 14.171875 36.925781 C 14.699219 36.738281 15.148438 36.578125 15.667969 36.421875 M 21.753906 37.890625 C 21.835938 38.28125 21.863281 38.699219 22.015625 39.058594 C 22.359375 39.875 23.171875 40.273438 24.183594 40.191406 C 24.808594 40.136719 25.546875 39.816406 25.777344 38.886719 C 25.511719 38.742188 25.242188 38.59375 24.957031 38.4375 C 24.898438 38.542969 24.867188 38.601562 24.839844 38.65625 C 24.609375 39.09375 24.242188 39.289062 23.761719 39.226562 C 23.367188 39.175781 23.023438 38.855469 22.964844 38.390625 C 22.921875 38.035156 22.910156 37.65625 22.96875 37.304688 C 23.097656 36.578125 23.796875 36.234375 24.417969 36.578125 C 24.628906 36.695312 24.808594 36.875 25.035156 37.054688 C 25.210938 36.921875 25.472656 36.722656 25.726562 36.53125 C 25.445312 35.980469 25.140625 35.714844 24.65625 35.589844 C 23.023438 35.167969 21.800781 36.101562 21.753906 37.890625 M 43.078125 35.585938 C 42.976562 35.578125 42.875 35.570312 42.753906 35.558594 C 42.753906 35.210938 42.753906 34.890625 42.753906 34.519531 C 42.363281 34.582031 42.003906 34.640625 41.617188 34.703125 C 41.617188 35.011719 41.617188 35.285156 41.617188 35.605469 C 41.375 35.605469 41.171875 35.605469 40.976562 35.605469 C 40.976562 35.914062 40.976562 36.179688 40.976562 36.484375 C 41.199219 36.484375 41.402344 36.484375 41.644531 36.484375 C 41.644531 37.277344 41.605469 38.03125 41.652344 38.78125 C 41.730469 40.003906 42.914062 40.621094 43.964844 40.011719 C 44.050781 39.960938 44.140625 39.796875 44.121094 39.710938 C 44.070312 39.484375 43.964844 39.265625 43.882812 39.050781 C 43.6875 39.105469 43.539062 39.164062 43.386719 39.1875 C 43.039062 39.238281 42.800781 39.074219 42.789062 38.714844 C 42.765625 37.980469 42.78125 37.246094 42.78125 36.480469 C 43.199219 36.480469 43.589844 36.480469 44 36.480469 C 44 36.171875 44 35.894531 44 35.585938 C 43.703125 35.585938 43.429688 35.585938 43.078125 35.585938 M 20.140625 40.195312 C 20.464844 40.136719 20.789062 40.09375 21.101562 40.007812 C 21.179688 39.984375 21.273438 39.796875 21.253906 39.710938 C 21.207031 39.480469 21.097656 39.265625 21.015625 39.046875 C 20.835938 39.101562 20.699219 39.15625 20.558594 39.179688 C 20.1875 39.246094 19.9375 39.085938 19.925781 38.714844 C 19.898438 37.980469 19.917969 37.242188 19.917969 36.476562 C 20.335938 36.476562 20.726562 36.476562 21.132812 36.476562 C 21.132812 36.167969 21.132812 35.890625 21.132812 35.570312 C 20.710938 35.570312 20.3125 35.570312 19.886719 35.570312 C 19.886719 35.203125 19.886719 34.882812 19.886719 34.515625 C 19.496094 34.582031 19.136719 34.640625 18.746094 34.707031 C 18.746094 35.015625 18.746094 35.292969 18.746094 35.59375 C 18.515625 35.59375 18.324219 35.59375 18.117188 35.59375 C 18.117188 35.898438 18.117188 36.171875 18.117188 36.488281 C 18.339844 36.488281 18.542969 36.488281 18.789062 36.488281 C 18.789062 37.3125 18.753906 38.09375 18.796875 38.871094 C 18.84375 39.699219 19.25 40.082031 20.140625 40.195312 Z M 20.140625 40.195312 "/>
<path style=" stroke:none;fill-rule:nonzero;fill:rgb(51.764709%,35.686275%,80.784315%);fill-opacity:1;" d="M 24.503906 30.394531 C 21.839844 30.507812 19.351562 29.960938 17.003906 28.757812 C 16.664062 28.585938 16.359375 28.585938 16.023438 28.753906 C 15.074219 29.226562 14.113281 29.675781 13.15625 30.136719 C 12.878906 30.273438 12.601562 30.324219 12.332031 30.128906 C 12.042969 29.914062 12.039062 29.609375 12.09375 29.289062 C 12.292969 28.125 12.492188 26.957031 12.691406 25.792969 C 12.746094 25.476562 12.707031 25.199219 12.488281 24.929688 C 10.949219 23.015625 9.953125 20.828125 9.566406 18.390625 C 8.878906 14.074219 9.796875 10.136719 12.519531 6.722656 C 14.957031 3.667969 18.152344 1.929688 21.976562 1.453125 C 26.746094 0.855469 30.898438 2.277344 34.4375 5.574219 C 34.699219 5.820312 34.96875 6.066406 35.179688 6.355469 C 35.578125 6.890625 35.523438 7.441406 35.011719 7.855469 C 34.089844 8.597656 33.152344 9.324219 32.203125 10.03125 C 31.667969 10.425781 31.246094 10.375 30.792969 9.886719 C 29.410156 8.398438 27.726562 7.480469 25.761719 7.09375 C 21.421875 6.230469 16.582031 8.546875 15.296875 13.425781 C 13.941406 18.5625 16.835938 23.496094 22.015625 24.527344 C 25.207031 25.164062 27.921875 24.0625 30.152344 21.6875 C 30.402344 21.425781 30.621094 21.136719 30.839844 20.851562 C 31.246094 20.332031 31.640625 20.257812 32.171875 20.660156 C 32.945312 21.25 33.703125 21.859375 34.464844 22.460938 C 34.632812 22.59375 34.800781 22.726562 34.96875 22.855469 C 35.46875 23.246094 35.597656 23.640625 35.277344 24.1875 C 34.957031 24.726562 34.574219 25.230469 34.160156 25.699219 C 31.953125 28.191406 29.175781 29.636719 25.957031 30.226562 C 25.488281 30.3125 25.011719 30.335938 24.503906 30.394531 M 20.796875 26.675781 C 20.730469 26.578125 20.675781 26.464844 20.59375 26.386719 C 20.304688 26.105469 19.925781 26.066406 19.574219 26.269531 C 19.21875 26.476562 19.105469 26.800781 19.167969 27.195312 C 19.222656 27.535156 19.621094 27.949219 19.917969 27.984375 C 20.480469 28.054688 20.972656 27.367188 20.796875 26.675781 M 26.613281 27.96875 C 26.917969 28.070312 27.140625 27.886719 27.355469 27.71875 C 27.753906 27.402344 27.792969 26.8125 27.453125 26.429688 C 27.132812 26.074219 26.570312 26.0625 26.214844 26.40625 C 25.863281 26.75 25.863281 27.308594 26.226562 27.660156 C 26.328125 27.761719 26.449219 27.84375 26.613281 27.96875 M 23.390625 28.445312 C 23.503906 28.425781 23.628906 28.421875 23.734375 28.378906 C 24.09375 28.214844 24.28125 27.921875 24.285156 27.523438 C 24.285156 27.175781 24.007812 26.792969 23.683594 26.707031 C 23.308594 26.613281 22.980469 26.695312 22.726562 27.011719 C 22.332031 27.511719 22.617188 28.359375 23.390625 28.445312 Z M 23.390625 28.445312 "/>
<path style=" stroke:none;fill-rule:nonzero;fill:rgb(100%,57.254905%,20.392157%);fill-opacity:1;" d="M 19.28125 19.257812 C 19.335938 19.890625 19.335938 19.890625 18.746094 19.902344 C 17.929688 19.914062 17.953125 19.917969 18.0625 19.09375 C 18.140625 18.492188 18.160156 17.886719 18.195312 17.28125 C 18.203125 17.183594 18.164062 17.066406 18.109375 16.984375 C 17.917969 16.6875 17.929688 16.410156 18.128906 16.121094 C 18.183594 16.042969 18.210938 15.925781 18.214844 15.824219 C 18.234375 15.449219 18.21875 15.070312 18.246094 14.695312 C 18.277344 14.296875 18.195312 14.03125 17.800781 13.820312 C 17.261719 13.535156 17.289062 12.855469 17.828125 12.554688 C 19.664062 11.542969 21.507812 10.546875 23.355469 9.558594 C 23.804688 9.316406 24.273438 9.328125 24.726562 9.574219 C 26.574219 10.566406 28.421875 11.554688 30.265625 12.554688 C 30.867188 12.878906 30.871094 13.421875 30.28125 13.746094 C 28.503906 14.730469 26.722656 15.703125 24.941406 16.675781 C 24.328125 17.007812 23.722656 16.949219 23.121094 16.625 C 21.914062 15.980469 20.707031 15.34375 19.5 14.707031 C 19.394531 14.652344 19.289062 14.601562 19.109375 14.515625 C 19.179688 15.140625 18.914062 15.71875 19.300781 16.265625 C 19.378906 16.375 19.40625 16.613281 19.34375 16.726562 C 18.988281 17.34375 19.269531 17.988281 19.226562 18.617188 C 19.214844 18.8125 19.257812 19.015625 19.28125 19.257812 Z M 19.28125 19.257812 "/>
<path style=" stroke:none;fill-rule:nonzero;fill:rgb(100%,57.647061%,20.392157%);fill-opacity:1;" d="M 22.554688 17.144531 C 22.972656 17.335938 23.351562 17.570312 23.761719 17.6875 C 24.257812 17.832031 24.71875 17.59375 25.148438 17.371094 C 26.078125 16.886719 26.992188 16.371094 27.914062 15.871094 C 28.039062 15.804688 28.167969 15.742188 28.320312 15.664062 C 28.34375 15.722656 28.378906 15.769531 28.378906 15.8125 C 28.375 16.527344 28.382812 17.242188 28.351562 17.953125 C 28.316406 18.664062 27.921875 19.179688 27.382812 19.59375 C 25.503906 21.050781 22.671875 21.039062 20.804688 19.566406 C 20.226562 19.109375 19.90625 18.523438 19.914062 17.765625 C 19.917969 17.109375 19.914062 16.457031 19.914062 15.71875 C 20.832031 16.214844 21.679688 16.671875 22.554688 17.144531 Z M 22.554688 17.144531 "/>
<path style=" stroke:none;fill-rule:nonzero;fill:rgb(1.176471%,29.803923%,68.235296%);fill-opacity:1;" d="M 6.703125 40.097656 C 5.664062 40.105469 4.660156 40.105469 3.644531 40.105469 C 3.644531 38.113281 3.644531 36.136719 3.644531 34.148438 C 4.640625 34.148438 5.628906 34.101562 6.613281 34.167969 C 7.136719 34.199219 7.601562 34.5 7.753906 35.085938 C 7.933594 35.785156 7.738281 36.359375 7.117188 36.742188 C 7.140625 36.785156 7.148438 36.816406 7.167969 36.824219 C 8.007812 37.214844 8.316406 37.707031 8.242188 38.539062 C 8.171875 39.359375 7.726562 39.847656 6.851562 40.058594 C 6.8125 40.066406 6.773438 40.082031 6.703125 40.097656 M 7.066406 38.363281 C 7.085938 37.953125 6.992188 37.550781 6.5625 37.476562 C 5.988281 37.375 5.394531 37.390625 4.8125 37.355469 C 4.8125 38.015625 4.8125 38.585938 4.8125 39.148438 C 5.339844 39.148438 5.839844 39.167969 6.335938 39.140625 C 6.757812 39.117188 7.015625 38.871094 7.066406 38.363281 M 6.308594 36.445312 C 6.671875 36.257812 6.78125 35.917969 6.667969 35.566406 C 6.605469 35.359375 6.386719 35.085938 6.207031 35.058594 C 5.75 34.988281 5.277344 35.035156 4.808594 35.035156 C 4.808594 35.535156 4.808594 35.996094 4.808594 36.472656 C 5.300781 36.472656 5.773438 36.472656 6.308594 36.445312 Z M 6.308594 36.445312 "/>
<path style=" stroke:none;fill-rule:nonzero;fill:rgb(1.176471%,29.803923%,68.235296%);fill-opacity:1;" d="M 30.574219 38.257812 C 30.574219 38.886719 30.574219 39.480469 30.574219 40.09375 C 30.203125 40.09375 29.851562 40.09375 29.457031 40.09375 C 29.457031 39.53125 29.457031 38.972656 29.457031 38.410156 C 29.457031 38.046875 29.460938 37.683594 29.453125 37.320312 C 29.445312 36.8125 29.277344 36.5625 28.921875 36.488281 C 28.46875 36.390625 28.03125 36.574219 27.859375 36.988281 C 27.765625 37.214844 27.71875 37.476562 27.710938 37.726562 C 27.691406 38.507812 27.703125 39.285156 27.703125 40.09375 C 27.332031 40.09375 26.984375 40.09375 26.609375 40.09375 C 26.609375 38 26.609375 35.902344 26.609375 33.785156 C 26.964844 33.785156 27.316406 33.785156 27.699219 33.785156 C 27.699219 34.578125 27.699219 35.355469 27.699219 36.203125 C 27.816406 36.109375 27.890625 36.0625 27.945312 36.003906 C 28.457031 35.46875 29.082031 35.378906 29.734375 35.617188 C 30.367188 35.84375 30.546875 36.414062 30.566406 37.042969 C 30.578125 37.433594 30.570312 37.828125 30.574219 38.257812 Z M 30.574219 38.257812 "/>
<path style=" stroke:none;fill-rule:nonzero;fill:rgb(1.568628%,30.19608%,68.235296%);fill-opacity:1;" d="M 33.351562 38.109375 C 33.128906 38.109375 32.945312 38.109375 32.765625 38.109375 C 32.703125 38.585938 32.90625 38.96875 33.285156 39.132812 C 33.835938 39.371094 34.378906 39.210938 34.851562 38.640625 C 35.089844 38.789062 35.332031 38.941406 35.574219 39.089844 C 35.429688 39.667969 34.824219 40.152344 34.160156 40.191406 C 33.296875 40.242188 32.453125 40.152344 31.949219 39.324219 C 31.40625 38.433594 31.40625 37.464844 31.863281 36.546875 C 32.402344 35.46875 34.070312 35.148438 35.015625 35.890625 C 35.410156 36.203125 35.582031 36.628906 35.636719 37.109375 C 35.667969 37.414062 35.640625 37.726562 35.640625 38.109375 C 34.882812 38.109375 34.136719 38.109375 33.351562 38.109375 M 33.46875 37.367188 C 33.839844 37.367188 34.207031 37.367188 34.578125 37.367188 C 34.535156 36.679688 34.289062 36.398438 33.742188 36.386719 C 33.152344 36.378906 32.832031 36.691406 32.757812 37.367188 C 32.972656 37.367188 33.183594 37.367188 33.46875 37.367188 Z M 33.46875 37.367188 "/>
<path style=" stroke:none;fill-rule:nonzero;fill:rgb(1.568628%,30.19608%,68.235296%);fill-opacity:1;" d="M 39.441406 35.664062 C 40.25 36.082031 40.699219 37.066406 40.46875 37.921875 C 40.445312 38.007812 40.257812 38.101562 40.148438 38.101562 C 39.421875 38.117188 38.695312 38.109375 37.964844 38.109375 C 37.835938 38.109375 37.707031 38.109375 37.578125 38.109375 C 37.546875 38.628906 37.746094 38.988281 38.132812 39.140625 C 38.6875 39.363281 39.199219 39.207031 39.675781 38.640625 C 39.917969 38.792969 40.171875 38.949219 40.449219 39.125 C 40.1875 39.65625 39.8125 40.015625 39.261719 40.132812 C 38.074219 40.378906 36.933594 40.003906 36.535156 38.867188 C 36.089844 37.582031 36.546875 36.167969 37.59375 35.699219 C 38.1875 35.429688 38.800781 35.460938 39.441406 35.664062 M 37.578125 37.34375 C 38.179688 37.34375 38.78125 37.34375 39.382812 37.34375 C 39.378906 36.640625 39.050781 36.332031 38.398438 36.394531 C 37.941406 36.441406 37.726562 36.667969 37.578125 37.34375 Z M 37.578125 37.34375 "/>
<path style=" stroke:none;fill-rule:nonzero;fill:rgb(1.960784%,30.19608%,68.627453%);fill-opacity:1;" d="M 11.519531 35.5625 C 12.289062 35.761719 12.605469 36.144531 12.625 36.90625 C 12.640625 37.511719 12.628906 38.117188 12.632812 38.726562 C 12.636719 39.203125 12.648438 39.214844 13.132812 39.242188 C 13.148438 39.289062 13.183594 39.34375 13.171875 39.386719 C 13.105469 39.621094 13.421875 39.933594 13.054688 40.097656 C 12.675781 40.261719 12.058594 40.117188 11.839844 39.839844 C 11.769531 39.746094 11.714844 39.636719 11.628906 39.488281 C 11.542969 39.59375 11.476562 39.683594 11.40625 39.765625 C 10.984375 40.261719 10.042969 40.347656 9.472656 39.941406 C 8.996094 39.601562 8.828125 38.792969 9.113281 38.226562 C 9.335938 37.789062 9.753906 37.648438 10.175781 37.527344 C 10.519531 37.429688 10.882812 37.394531 11.210938 37.265625 C 11.351562 37.210938 11.523438 36.976562 11.511719 36.839844 C 11.496094 36.695312 11.296875 36.484375 11.148438 36.457031 C 10.542969 36.339844 10.039062 36.597656 9.578125 37.054688 C 9.410156 36.816406 9.253906 36.589844 9.074219 36.328125 C 9.738281 35.585938 10.570312 35.4375 11.519531 35.5625 M 10.132812 38.53125 C 10.027344 39.109375 10.269531 39.390625 10.824219 39.332031 C 11.425781 39.269531 11.738281 38.617188 11.507812 37.929688 C 11.242188 37.996094 10.964844 38.039062 10.710938 38.136719 C 10.515625 38.210938 10.339844 38.359375 10.132812 38.53125 Z M 10.132812 38.53125 "/>
<path style=" stroke:none;fill-rule:nonzero;fill:rgb(1.960784%,30.19608%,68.627453%);fill-opacity:1;" d="M 15.632812 36.417969 C 15.148438 36.578125 14.699219 36.738281 14.171875 36.925781 C 14.09375 36.816406 13.9375 36.589844 13.714844 36.269531 C 14.066406 36.058594 14.375 35.773438 14.726562 35.691406 C 15.230469 35.574219 15.773438 35.535156 16.28125 35.601562 C 16.949219 35.6875 17.28125 36.148438 17.304688 36.835938 C 17.324219 37.457031 17.328125 38.078125 17.3125 38.695312 C 17.300781 39.066406 17.367188 39.320312 17.808594 39.230469 C 17.828125 39.285156 17.863281 39.328125 17.851562 39.359375 C 17.773438 39.601562 18.125 39.933594 17.726562 40.097656 C 17.285156 40.28125 16.695312 40.109375 16.472656 39.769531 C 16.417969 39.691406 16.378906 39.605469 16.300781 39.464844 C 15.996094 40.011719 15.542969 40.222656 14.972656 40.195312 C 14.257812 40.164062 13.796875 39.78125 13.679688 39.121094 C 13.554688 38.410156 13.832031 37.898438 14.53125 37.640625 C 14.914062 37.503906 15.324219 37.445312 15.71875 37.335938 C 15.957031 37.269531 16.234375 37.21875 16.21875 36.867188 C 16.207031 36.507812 15.949219 36.449219 15.632812 36.417969 M 15.550781 39.324219 C 16.15625 39.175781 16.425781 38.574219 16.183594 37.90625 C 16.046875 37.957031 15.914062 38.015625 15.777344 38.054688 C 15.636719 38.09375 15.492188 38.109375 15.351562 38.144531 C 14.929688 38.253906 14.734375 38.488281 14.773438 38.832031 C 14.8125 39.1875 15.011719 39.324219 15.550781 39.324219 Z M 15.550781 39.324219 "/>
<path style=" stroke:none;fill-rule:nonzero;fill:rgb(1.960784%,30.588236%,68.627453%);fill-opacity:1;" d="M 21.753906 37.851562 C 21.800781 36.101562 23.023438 35.167969 24.65625 35.589844 C 25.140625 35.714844 25.445312 35.980469 25.726562 36.53125 C 25.472656 36.722656 25.210938 36.921875 25.035156 37.054688 C 24.808594 36.875 24.628906 36.695312 24.417969 36.578125 C 23.796875 36.234375 23.097656 36.578125 22.96875 37.304688 C 22.910156 37.65625 22.921875 38.035156 22.964844 38.390625 C 23.023438 38.855469 23.367188 39.175781 23.761719 39.226562 C 24.242188 39.289062 24.609375 39.09375 24.839844 38.65625 C 24.867188 38.601562 24.898438 38.542969 24.957031 38.4375 C 25.242188 38.59375 25.511719 38.742188 25.777344 38.886719 C 25.546875 39.816406 24.808594 40.136719 24.183594 40.191406 C 23.171875 40.273438 22.359375 39.875 22.015625 39.058594 C 21.863281 38.699219 21.835938 38.28125 21.753906 37.851562 Z M 21.753906 37.851562 "/>
<path style=" stroke:none;fill-rule:nonzero;fill:rgb(3.137255%,31.37255%,69.01961%);fill-opacity:1;" d="M 43.117188 35.585938 C 43.429688 35.585938 43.703125 35.585938 44 35.585938 C 44 35.894531 44 36.171875 44 36.480469 C 43.589844 36.480469 43.199219 36.480469 42.78125 36.480469 C 42.78125 37.246094 42.765625 37.980469 42.789062 38.714844 C 42.800781 39.074219 43.039062 39.238281 43.386719 39.1875 C 43.539062 39.164062 43.6875 39.105469 43.882812 39.050781 C 43.964844 39.265625 44.070312 39.484375 44.121094 39.710938 C 44.140625 39.796875 44.050781 39.960938 43.964844 40.011719 C 42.914062 40.621094 41.730469 40.003906 41.652344 38.78125 C 41.605469 38.03125 41.644531 37.277344 41.644531 36.484375 C 41.402344 36.484375 41.199219 36.484375 40.976562 36.484375 C 40.976562 36.179688 40.976562 35.914062 40.976562 35.605469 C 41.171875 35.605469 41.375 35.605469 41.617188 35.605469 C 41.617188 35.285156 41.617188 35.011719 41.617188 34.703125 C 42.003906 34.640625 42.363281 34.582031 42.753906 34.519531 C 42.753906 34.890625 42.753906 35.210938 42.753906 35.558594 C 42.875 35.570312 42.976562 35.578125 43.117188 35.585938 Z M 43.117188 35.585938 "/>
<path style=" stroke:none;fill-rule:nonzero;fill:rgb(3.137255%,31.37255%,69.01961%);fill-opacity:1;" d="M 20.105469 40.195312 C 19.25 40.082031 18.84375 39.699219 18.796875 38.871094 C 18.753906 38.09375 18.789062 37.3125 18.789062 36.488281 C 18.542969 36.488281 18.339844 36.488281 18.117188 36.488281 C 18.117188 36.171875 18.117188 35.898438 18.117188 35.59375 C 18.324219 35.59375 18.515625 35.59375 18.746094 35.59375 C 18.746094 35.292969 18.746094 35.015625 18.746094 34.707031 C 19.136719 34.640625 19.496094 34.582031 19.886719 34.515625 C 19.886719 34.882812 19.886719 35.203125 19.886719 35.570312 C 20.3125 35.570312 20.710938 35.570312 21.132812 35.570312 C 21.132812 35.890625 21.132812 36.167969 21.132812 36.476562 C 20.726562 36.476562 20.335938 36.476562 19.917969 36.476562 C 19.917969 37.242188 19.898438 37.980469 19.925781 38.714844 C 19.9375 39.085938 20.1875 39.246094 20.558594 39.179688 C 20.699219 39.15625 20.835938 39.101562 21.015625 39.046875 C 21.097656 39.265625 21.207031 39.480469 21.253906 39.710938 C 21.273438 39.796875 21.179688 39.984375 21.101562 40.007812 C 20.789062 40.09375 20.464844 40.136719 20.105469 40.195312 Z M 20.105469 40.195312 "/>
<path style=" stroke:none;fill-rule:nonzero;fill:rgb(98.431373%,97.647059%,99.215686%);fill-opacity:1;" d="M 20.804688 26.707031 C 20.972656 27.367188 20.480469 28.054688 19.917969 27.984375 C 19.621094 27.949219 19.222656 27.535156 19.167969 27.195312 C 19.105469 26.800781 19.21875 26.476562 19.574219 26.269531 C 19.925781 26.066406 20.304688 26.105469 20.59375 26.386719 C 20.675781 26.464844 20.730469 26.578125 20.804688 26.707031 Z M 20.804688 26.707031 "/>
<path style=" stroke:none;fill-rule:nonzero;fill:rgb(98.431373%,97.647059%,99.215686%);fill-opacity:1;" d="M 26.585938 27.953125 C 26.449219 27.84375 26.328125 27.761719 26.226562 27.660156 C 25.863281 27.308594 25.863281 26.75 26.214844 26.40625 C 26.570312 26.0625 27.132812 26.074219 27.453125 26.429688 C 27.792969 26.8125 27.753906 27.402344 27.355469 27.71875 C 27.140625 27.886719 26.917969 28.070312 26.585938 27.953125 Z M 26.585938 27.953125 "/>
<path style=" stroke:none;fill-rule:nonzero;fill:rgb(98.431373%,97.647059%,99.215686%);fill-opacity:1;" d="M 23.359375 28.445312 C 22.617188 28.359375 22.332031 27.511719 22.726562 27.011719 C 22.980469 26.695312 23.308594 26.613281 23.683594 26.707031 C 24.007812 26.792969 24.285156 27.175781 24.285156 27.523438 C 24.28125 27.921875 24.09375 28.214844 23.734375 28.378906 C 23.628906 28.421875 23.503906 28.425781 23.359375 28.445312 Z M 23.359375 28.445312 "/>
<path style=" stroke:none;fill-rule:nonzero;fill:rgb(97.254902%,98.039216%,99.215686%);fill-opacity:1;" d="M 7.066406 38.398438 C 7.015625 38.871094 6.757812 39.117188 6.335938 39.140625 C 5.839844 39.167969 5.339844 39.148438 4.8125 39.148438 C 4.8125 38.585938 4.8125 38.015625 4.8125 37.355469 C 5.394531 37.390625 5.988281 37.375 6.5625 37.476562 C 6.992188 37.550781 7.085938 37.953125 7.066406 38.398438 Z M 7.066406 38.398438 "/>
<path style=" stroke:none;fill-rule:nonzero;fill:rgb(98.039216%,98.823529%,99.215686%);fill-opacity:1;" d="M 6.277344 36.457031 C 5.773438 36.472656 5.300781 36.472656 4.808594 36.472656 C 4.808594 35.996094 4.808594 35.535156 4.808594 35.035156 C 5.277344 35.035156 5.75 34.988281 6.207031 35.058594 C 6.386719 35.085938 6.605469 35.359375 6.667969 35.566406 C 6.78125 35.917969 6.671875 36.257812 6.277344 36.457031 Z M 6.277344 36.457031 "/>
<path style=" stroke:none;fill-rule:nonzero;fill:rgb(98.431373%,98.823529%,99.607843%);fill-opacity:1;" d="M 33.429688 37.367188 C 33.183594 37.367188 32.972656 37.367188 32.757812 37.367188 C 32.832031 36.691406 33.152344 36.378906 33.742188 36.386719 C 34.289062 36.398438 34.535156 36.679688 34.578125 37.367188 C 34.207031 37.367188 33.839844 37.367188 33.429688 37.367188 Z M 33.429688 37.367188 "/>
<path style=" stroke:none;fill-rule:nonzero;fill:rgb(98.431373%,98.823529%,99.607843%);fill-opacity:1;" d="M 37.570312 37.3125 C 37.726562 36.667969 37.941406 36.441406 38.398438 36.394531 C 39.050781 36.332031 39.378906 36.640625 39.382812 37.34375 C 38.78125 37.34375 38.179688 37.34375 37.570312 37.3125 Z M 37.570312 37.3125 "/>
<path style=" stroke:none;fill-rule:nonzero;fill:rgb(96.862745%,97.647059%,98.823529%);fill-opacity:1;" d="M 10.144531 38.503906 C 10.339844 38.359375 10.515625 38.210938 10.710938 38.136719 C 10.964844 38.039062 11.242188 37.996094 11.507812 37.929688 C 11.738281 38.617188 11.425781 39.269531 10.824219 39.332031 C 10.269531 39.390625 10.027344 39.109375 10.144531 38.503906 Z M 10.144531 38.503906 "/>
<path style=" stroke:none;fill-rule:nonzero;fill:rgb(96.862745%,97.647059%,98.823529%);fill-opacity:1;" d="M 15.523438 39.328125 C 15.011719 39.324219 14.8125 39.1875 14.773438 38.832031 C 14.734375 38.488281 14.929688 38.253906 15.351562 38.144531 C 15.492188 38.109375 15.636719 38.09375 15.777344 38.054688 C 15.914062 38.015625 16.046875 37.957031 16.183594 37.90625 C 16.425781 38.574219 16.15625 39.175781 15.523438 39.328125 Z M 15.523438 39.328125 "/>
</g>
</svg>
