<svg version="1.1" id="Layer_1" xmlns="http://www.w3.org/2000/svg" xmlns:xlink="http://www.w3.org/1999/xlink" x="0px" y="0px"
	 width="100%" viewBox="0 0 592 544" enable-background="new 0 0 592 544" xml:space="preserve">
<path fill="#FEFEFF" opacity="1.000000" stroke="none" 
	d="
M362.000000,545.000000 
	C241.333328,545.000000 121.166664,545.000000 1.000000,545.000000 
	C1.000000,363.666656 1.000000,182.333328 1.000000,1.000000 
	C198.333328,1.000000 395.666656,1.000000 593.000000,1.000000 
	C593.000000,182.333328 593.000000,363.666656 593.000000,545.000000 
	C516.166687,545.000000 439.333344,545.000000 362.000000,545.000000 
M309.107605,375.741913 
	C315.052490,375.080383 321.058441,374.758575 326.932434,373.702637 
	C367.510376,366.408325 402.476196,348.567261 430.276031,317.733215 
	C435.481506,311.959564 440.333740,305.700104 444.334167,299.054016 
	C448.399170,292.300690 446.733459,287.388184 440.460358,282.587708 
	C438.343689,280.967957 436.228668,279.345978 434.119934,277.715942 
	C424.499298,270.279327 414.977386,262.710510 405.228943,255.445511 
	C398.539948,250.460556 393.588684,251.385208 388.474915,257.825256 
	C385.681549,261.343079 382.916931,264.915161 379.814056,268.150848 
	C351.689941,297.478394 317.493256,311.136261 277.288605,303.262817 
	C212.047394,290.486389 175.607330,229.505966 192.676193,165.977173 
	C208.885117,105.649063 269.814606,77.040047 324.504181,87.688835 
	C349.212494,92.499878 370.466156,103.836319 387.867310,122.230171 
	C393.588287,128.277557 398.905151,128.919098 405.606567,124.018280 
	C417.568420,115.270470 429.366364,106.286346 440.994873,97.099770 
	C447.426727,92.018600 448.150116,85.191109 443.124847,78.570457 
	C440.434631,75.026108 437.062561,71.952271 433.758362,68.928146 
	C389.188599,28.136206 336.890747,10.580521 276.823547,17.949095 
	C228.649216,23.858746 188.389404,45.369972 157.707108,83.117073 
	C123.401138,125.322220 111.852539,174.022751 120.482445,227.378433 
	C125.355255,257.505219 137.891235,284.545807 157.316101,308.206451 
	C160.051056,311.537781 160.562744,314.971924 159.876846,318.899689 
	C157.360916,333.307190 154.829376,347.711914 152.323654,362.121185 
	C151.638885,366.059052 151.670135,369.865021 155.349396,372.495728 
	C158.737350,374.918060 162.200577,374.302399 165.733353,372.619293 
	C177.749191,366.894440 189.846924,361.339447 201.813614,355.514618 
	C206.070938,353.442352 209.918289,353.416962 214.153580,355.546051 
	C243.730911,370.414642 275.081085,377.180786 309.107605,375.741913 
M242.811676,237.609604 
	C242.582947,235.123566 242.018936,232.614517 242.187592,230.155731 
	C242.719955,222.394058 239.195969,214.421997 243.638901,206.786987 
	C244.441483,205.407761 244.085312,202.460709 243.092133,201.081390 
	C238.236938,194.338547 241.579849,187.186874 240.689087,179.461716 
	C242.970642,180.552261 244.307617,181.144775 245.602921,181.817566 
	C260.815643,189.719269 276.040985,197.596954 291.222260,205.558762 
	C298.801758,209.533844 306.441101,210.290421 314.145050,206.167709 
	C336.600250,194.150970 359.046814,182.117218 381.426758,169.961227 
	C388.866638,165.920166 388.791504,159.243057 381.221161,155.208313 
	C358.013580,142.839462 334.713287,130.644516 311.453400,118.373734 
	C305.728607,115.353630 299.854187,115.177856 294.194061,118.159683 
	C270.928955,130.416016 247.691818,142.728027 224.560104,155.233536 
	C217.745865,158.917496 217.403000,167.350296 224.202637,170.892990 
	C229.192459,173.492737 230.215057,176.776016 229.836304,181.675583 
	C229.477478,186.317184 229.651245,190.997772 229.435013,195.653992 
	C229.376862,196.906143 229.038467,198.334396 228.334381,199.333389 
	C225.819153,202.902084 225.696777,206.321136 228.125214,209.983826 
	C228.804779,211.008789 229.260040,212.448853 229.188934,213.661606 
	C228.750793,221.135117 228.489182,228.646301 227.487610,236.052826 
	C226.109512,246.243637 225.850296,246.208572 236.130173,246.053482 
	C243.527359,245.941879 243.527359,245.941895 242.811676,237.609604 
M283.739746,211.812149 
	C273.069061,206.146072 262.398407,200.479996 250.826096,194.335159 
	C250.826096,203.453995 250.889114,211.540604 250.809586,219.625778 
	C250.717209,229.016373 254.754623,236.244812 262.049225,241.891556 
	C285.570343,260.099213 321.233063,260.264526 344.924713,242.271988 
	C351.705536,237.122330 356.665344,230.766251 357.087891,221.970718 
	C357.511078,213.161011 357.392731,204.324768 357.460175,195.499771 
	C357.464325,194.954834 357.017883,194.406448 356.693115,193.656525 
	C354.813873,194.606873 353.180450,195.395187 351.581268,196.247681 
	C339.985199,202.429398 328.468536,208.765762 316.772369,214.751617 
	C311.356659,217.523254 305.526733,220.468628 299.306458,218.691742 
	C294.138702,217.215515 289.368225,214.348389 283.739746,211.812149 
M84.847633,495.702545 
	C85.324646,495.555145 85.794945,495.379456 86.279663,495.264557 
	C97.332191,492.645355 102.939453,486.648590 103.834267,476.480560 
	C104.741425,466.172241 100.840759,460.099762 90.262184,455.298248 
	C90.031944,455.193726 89.940422,454.783569 89.651459,454.288788 
	C97.468147,449.513031 99.912758,442.411743 97.655060,433.768860 
	C95.767006,426.541046 89.879890,422.846283 83.295807,422.416504 
	C70.924606,421.608917 58.463181,422.183746 45.892296,422.183746 
	C45.892296,446.796082 45.892296,471.220093 45.892296,495.840057 
	C58.719994,495.840057 71.343071,495.840057 84.847633,495.702545 
M385.103149,472.500549 
	C385.075226,467.670044 385.135284,462.837067 384.999451,458.009583 
	C384.779785,450.200897 382.481537,443.182648 374.517761,440.342041 
	C366.318298,437.417358 358.424652,438.499634 351.982513,445.154968 
	C351.278900,445.881866 350.388214,446.427704 348.885834,447.604736 
	C348.885834,437.101196 348.885834,427.520569 348.885834,417.721985 
	C344.065430,417.721985 339.651215,417.721985 335.184540,417.721985 
	C335.184540,443.904114 335.184540,469.799805 335.184540,495.683594 
	C339.887207,495.683594 344.283478,495.683594 348.965210,495.683594 
	C348.965210,485.726685 348.818298,476.084686 349.050507,466.451813 
	C349.124786,463.369659 349.726746,460.109650 350.925262,457.286804 
	C353.098022,452.169586 358.600037,449.896881 364.310242,451.104645 
	C368.784607,452.051056 370.863373,455.158722 370.996948,461.392151 
	C371.093292,465.887970 371.029144,470.387268 371.030945,474.885010 
	C371.033722,481.821564 371.031677,488.758118 371.031677,495.708496 
	C376.014587,495.708496 380.418365,495.708496 385.103149,495.708496 
	C385.103149,488.110046 385.103149,480.805145 385.103149,472.500549 
M420.583801,471.185516 
	C429.984497,471.185516 439.385193,471.185516 448.928680,471.185516 
	C448.928680,466.424591 449.268127,462.571777 448.850586,458.802856 
	C448.193909,452.875305 446.014832,447.580292 441.042175,443.745392 
	C429.143188,434.568878 408.133759,438.510834 401.357849,451.837952 
	C395.573364,463.215179 395.587982,475.183197 402.409698,486.174805 
	C408.764648,496.414276 419.421783,497.533752 430.251923,496.914062 
	C438.652954,496.433289 446.274689,490.427399 448.084045,483.308594 
	C445.055237,481.453400 441.985382,479.573120 438.989227,477.737946 
	C433.005005,484.778687 426.213348,486.770233 419.249054,483.822357 
	C414.467743,481.798462 411.942139,477.047150 412.689362,471.185577 
	C414.977325,471.185577 417.297729,471.185577 420.583801,471.185516 
M496.441406,440.803711 
	C488.734894,438.435577 481.018097,438.041840 473.509491,441.358459 
	C460.323517,447.182770 454.556793,464.641876 460.211914,480.556213 
	C465.192352,494.571960 479.563141,499.214142 494.524872,496.168030 
	C501.449097,494.758301 506.176392,490.299896 509.469025,483.727325 
	C505.976105,481.574554 502.813171,479.625153 499.746399,477.735016 
	C493.737762,484.720825 487.284668,486.660492 480.326355,483.943359 
	C475.461731,482.043762 472.942657,477.615784 473.303955,471.186249 
	C474.925720,471.186249 476.570221,471.186279 478.214722,471.186249 
	C487.375061,471.186035 496.537506,471.282227 505.693573,471.083893 
	C507.100983,471.053406 509.432556,469.928223 509.723206,468.867310 
	C512.624634,458.275574 506.988342,446.092255 496.441406,440.803711 
M144.677505,439.568817 
	C133.128250,438.126526 122.674934,439.975586 114.280396,449.168915 
	C116.577705,452.404327 118.536888,455.163544 120.634232,458.117310 
	C126.473938,452.494080 132.796829,449.283051 140.405502,450.742004 
	C142.269073,451.099335 144.803955,453.694519 144.978821,455.463623 
	C145.145035,457.144989 142.995651,460.038818 141.215530,460.731323 
	C137.077682,462.340942 132.504669,462.787964 128.189529,463.997070 
	C122.881607,465.484314 117.616257,467.208557 114.805061,472.634979 
	C111.179451,479.633514 113.315605,489.639740 119.323540,493.826569 
	C126.504402,498.830719 138.366348,497.785980 143.664856,491.666840 
	C144.558914,490.634277 145.382462,489.540649 146.454254,488.206848 
	C147.581467,490.051178 148.234421,491.411102 149.149719,492.562439 
	C151.880753,495.997620 159.678223,497.767395 164.420685,495.728973 
	C169.061478,493.734253 165.083267,489.862396 165.888870,486.970337 
	C166.035706,486.443207 165.593002,485.751831 165.439270,485.197021 
	C159.337524,484.855408 159.154083,484.681458 159.124680,478.784393 
	C159.087296,471.287079 159.219284,463.786072 159.026443,456.293121 
	C158.784531,446.892426 154.767731,442.145599 144.677505,439.568817 
M197.367355,450.293091 
	C200.892242,450.622650 204.115372,451.381165 204.295837,455.834442 
	C204.471725,460.174194 200.997131,460.794067 198.000000,461.613770 
	C193.039169,462.970520 187.860413,463.661163 183.044220,465.387665 
	C174.211197,468.554169 170.741760,474.893921 172.325211,483.681641 
	C173.799026,491.860931 179.608170,496.553680 188.587219,496.972748 
	C195.771698,497.308075 201.471542,494.703125 205.316254,487.927521 
	C206.317963,489.690704 206.820557,490.732239 207.462936,491.678925 
	C210.311676,495.877411 217.738708,497.999329 223.297165,495.757477 
	C228.285980,493.745392 223.893814,489.606110 224.863342,486.602112 
	C224.979996,486.240631 224.570236,485.709259 224.316360,485.016113 
	C218.757828,486.155365 217.934433,483.007843 218.055923,478.416199 
	C218.258469,470.760834 218.235443,463.088470 217.972626,455.434753 
	C217.680267,446.921265 213.493622,441.242065 205.096420,440.153137 
	C198.692108,439.322601 191.827927,439.841095 185.511780,441.273682 
	C181.047638,442.286224 177.157959,445.831635 172.739410,448.404907 
	C175.576599,452.402679 177.535126,455.162323 178.523026,456.554321 
	C185.152725,454.224396 190.802338,452.238892 197.367355,450.293091 
M274.018127,468.461243 
	C275.056213,473.296692 275.360229,478.448669 277.281158,482.903412 
	C281.640045,493.011902 291.870392,497.950104 304.631348,496.899719 
	C312.488373,496.252991 321.781891,492.254364 324.671722,480.784668 
	C321.334167,478.981842 317.924530,477.140076 314.341705,475.204773 
	C313.623627,476.531525 313.236969,477.238586 312.856995,477.949219 
	C309.968964,483.350433 305.325226,485.760712 299.277100,484.995941 
	C294.317047,484.368744 290.007660,480.371155 289.271301,474.633972 
	C288.706360,470.232635 288.555664,465.587067 289.324219,461.245483 
	C290.916565,452.249969 299.753815,448.006073 307.548370,452.227753 
	C310.236847,453.683838 312.496765,455.931122 315.343201,458.117035 
	C317.561920,456.470306 320.827484,454.046600 324.021454,451.676056 
	C320.518127,444.856720 316.653076,441.585968 310.578735,440.039612 
	C289.985077,434.796936 274.607269,446.363708 274.018127,468.461243 
M542.587402,439.985413 
	C541.324463,439.874329 540.061462,439.763245 538.511719,439.626953 
	C538.511719,435.316193 538.511719,431.353699 538.511719,426.776886 
	C533.599365,427.564728 529.092773,428.287506 524.187012,429.074280 
	C524.187012,432.851624 524.187012,436.265778 524.187012,440.190491 
	C521.169067,440.190491 518.612244,440.190491 516.153198,440.190491 
	C516.153198,444.009949 516.153198,447.292267 516.153198,451.082458 
	C518.910278,451.082458 521.482056,451.082458 524.530396,451.082458 
	C524.530396,460.895081 524.044006,470.224426 524.640747,479.483948 
	C525.615051,494.602173 540.534424,502.242554 553.789673,494.690247 
	C554.854309,494.083649 555.968750,492.051605 555.733582,490.970490 
	C555.119507,488.147858 553.768860,485.485474 552.728027,482.800476 
	C550.300232,483.477844 548.428833,484.221558 546.491089,484.495697 
	C542.113159,485.114960 539.114014,483.084564 538.961914,478.666077 
	C538.649353,469.588440 538.867920,460.492493 538.867920,451.018005 
	C544.110535,451.018005 549.045471,451.018005 554.203125,451.018005 
	C554.203125,447.200439 554.203125,443.775665 554.203125,439.985565 
	C550.492554,439.985565 547.024780,439.985565 542.587402,439.985413 
M253.710373,496.982056 
	C257.757477,496.245789 261.863007,495.719696 265.809570,494.622040 
	C266.768127,494.355438 267.967163,492.040222 267.730438,490.956421 
	C267.114136,488.134552 265.762451,485.473328 264.709564,482.762115 
	C262.441650,483.425018 260.733276,484.099670 258.961121,484.408325 
	C254.274902,485.224487 251.129349,483.261536 250.962173,478.642334 
	C250.633698,469.567108 250.865509,460.471619 250.865509,450.992065 
	C256.135925,450.992065 261.068878,450.992065 266.192627,450.992065 
	C266.192627,447.164734 266.192627,443.739258 266.192627,439.758179 
	C260.891937,439.758179 255.840866,439.758179 250.486191,439.758179 
	C250.486191,435.240906 250.486191,431.279602 250.486191,426.754059 
	C245.563339,427.562286 241.055557,428.302368 236.136826,429.109924 
	C236.136826,432.923096 236.136826,436.334442 236.136826,440.072510 
	C233.218063,440.072510 230.785843,440.072510 228.187317,440.072510 
	C228.187317,443.838867 228.187317,447.237000 228.187317,451.146667 
	C230.990051,451.146667 233.564285,451.146667 236.642914,451.146667 
	C236.642914,461.304108 236.207123,470.973816 236.761749,480.586365 
	C237.352570,490.826508 242.451004,495.543823 253.710373,496.982056 
z"/>
<path fill="#845BCE" opacity="1.000000" stroke="none" 
	d="
M308.640045,375.771667 
	C275.081085,377.180786 243.730911,370.414642 214.153580,355.546051 
	C209.918289,353.416962 206.070938,353.442352 201.813614,355.514618 
	C189.846924,361.339447 177.749191,366.894440 165.733353,372.619293 
	C162.200577,374.302399 158.737350,374.918060 155.349396,372.495728 
	C151.670135,369.865021 151.638885,366.059052 152.323654,362.121185 
	C154.829376,347.711914 157.360916,333.307190 159.876846,318.899689 
	C160.562744,314.971924 160.051056,311.537781 157.316101,308.206451 
	C137.891235,284.545807 125.355255,257.505219 120.482445,227.378433 
	C111.852539,174.022751 123.401138,125.322220 157.707108,83.117073 
	C188.389404,45.369972 228.649216,23.858746 276.823547,17.949095 
	C336.890747,10.580521 389.188599,28.136206 433.758362,68.928146 
	C437.062561,71.952271 440.434631,75.026108 443.124847,78.570457 
	C448.150116,85.191109 447.426727,92.018600 440.994873,97.099770 
	C429.366364,106.286346 417.568420,115.270470 405.606567,124.018280 
	C398.905151,128.919098 393.588287,128.277557 387.867310,122.230171 
	C370.466156,103.836319 349.212494,92.499878 324.504181,87.688835 
	C269.814606,77.040047 208.885117,105.649063 192.676193,165.977173 
	C175.607330,229.505966 212.047394,290.486389 277.288605,303.262817 
	C317.493256,311.136261 351.689941,297.478394 379.814056,268.150848 
	C382.916931,264.915161 385.681549,261.343079 388.474915,257.825256 
	C393.588684,251.385208 398.539948,250.460556 405.228943,255.445511 
	C414.977386,262.710510 424.499298,270.279327 434.119934,277.715942 
	C436.228668,279.345978 438.343689,280.967957 440.460358,282.587708 
	C446.733459,287.388184 448.399170,292.300690 444.334167,299.054016 
	C440.333740,305.700104 435.481506,311.959564 430.276031,317.733215 
	C402.476196,348.567261 367.510376,366.408325 326.932434,373.702637 
	C321.058441,374.758575 315.052490,375.080383 308.640045,375.771667 
M261.961884,329.815247 
	C261.110931,328.607544 260.427399,327.224365 259.378723,326.223938 
	C255.765137,322.776520 250.960007,322.278229 246.549088,324.782013 
	C242.062088,327.328979 240.669403,331.354401 241.435028,336.220825 
	C242.101303,340.455841 247.128937,345.542511 250.874847,345.995911 
	C257.961487,346.853668 264.179840,338.360474 261.961884,329.815247 
M335.191986,345.786102 
	C339.061493,347.027252 341.837372,344.793945 344.551544,342.686646 
	C349.565155,338.794006 350.082336,331.483063 345.800110,326.781006 
	C341.766022,322.351410 334.658997,322.204773 330.214966,326.459473 
	C325.749115,330.735046 325.775238,337.638458 330.344421,341.976288 
	C331.646149,343.212067 333.134247,344.251526 335.191986,345.786102 
M294.618988,351.695160 
	C296.072021,351.426941 297.638977,351.419464 298.957397,350.843262 
	C303.493835,348.860535 305.833252,345.227905 305.871582,340.305420 
	C305.905060,336.000427 302.374634,331.239594 298.302795,330.207611 
	C293.608093,329.017731 289.457977,330.057556 286.266663,333.984863 
	C281.280487,340.120880 284.865112,350.629578 294.618988,351.695160 
z"/>
<path fill="#FF9234" opacity="1.000000" stroke="none" 
	d="
M242.864059,238.078308 
	C243.527359,245.941895 243.527359,245.941879 236.130173,246.053482 
	C225.850296,246.208572 226.109512,246.243637 227.487610,236.052826 
	C228.489182,228.646301 228.750793,221.135117 229.188934,213.661606 
	C229.260040,212.448853 228.804779,211.008789 228.125214,209.983826 
	C225.696777,206.321136 225.819153,202.902084 228.334381,199.333389 
	C229.038467,198.334396 229.376862,196.906143 229.435013,195.653992 
	C229.651245,190.997772 229.477478,186.317184 229.836304,181.675583 
	C230.215057,176.776016 229.192459,173.492737 224.202637,170.892990 
	C217.403000,167.350296 217.745865,158.917496 224.560104,155.233536 
	C247.691818,142.728027 270.928955,130.416016 294.194061,118.159683 
	C299.854187,115.177856 305.728607,115.353630 311.453400,118.373734 
	C334.713287,130.644516 358.013580,142.839462 381.221161,155.208313 
	C388.791504,159.243057 388.866638,165.920166 381.426758,169.961227 
	C359.046814,182.117218 336.600250,194.150970 314.145050,206.167709 
	C306.441101,210.290421 298.801758,209.533844 291.222260,205.558762 
	C276.040985,197.596954 260.815643,189.719269 245.602921,181.817566 
	C244.307617,181.144775 242.970642,180.552261 240.689087,179.461716 
	C241.579849,187.186874 238.236938,194.338547 243.092133,201.081390 
	C244.085312,202.460709 244.441483,205.407761 243.638901,206.786987 
	C239.195969,214.421997 242.719955,222.394058 242.187592,230.155731 
	C242.018936,232.614517 242.582947,235.123566 242.864059,238.078308 
z"/>
<path fill="#FF9334" opacity="1.000000" stroke="none" 
	d="
M284.080750,211.954773 
	C289.368225,214.348389 294.138702,217.215515 299.306458,218.691742 
	C305.526733,220.468628 311.356659,217.523254 316.772369,214.751617 
	C328.468536,208.765762 339.985199,202.429398 351.581268,196.247681 
	C353.180450,195.395187 354.813873,194.606873 356.693115,193.656525 
	C357.017883,194.406448 357.464325,194.954834 357.460175,195.499771 
	C357.392731,204.324768 357.511078,213.161011 357.087891,221.970718 
	C356.665344,230.766251 351.705536,237.122330 344.924713,242.271988 
	C321.233063,260.264526 285.570343,260.099213 262.049225,241.891556 
	C254.754623,236.244812 250.717209,229.016373 250.809586,219.625778 
	C250.889114,211.540604 250.826096,203.453995 250.826096,194.335159 
	C262.398407,200.479996 273.069061,206.146072 284.080750,211.954773 
z"/>
<path fill="#034CAE" opacity="1.000000" stroke="none" 
	d="
M84.406891,495.771301 
	C71.343071,495.840057 58.719994,495.840057 45.892296,495.840057 
	C45.892296,471.220093 45.892296,446.796082 45.892296,422.183746 
	C58.463181,422.183746 70.924606,421.608917 83.295807,422.416504 
	C89.879890,422.846283 95.767006,426.541046 97.655060,433.768860 
	C99.912758,442.411743 97.468147,449.513031 89.651459,454.288788 
	C89.940422,454.783569 90.031944,455.193726 90.262184,455.298248 
	C100.840759,460.099762 104.741425,466.172241 103.834267,476.480560 
	C102.939453,486.648590 97.332191,492.645355 86.279663,495.264557 
	C85.794945,495.379456 85.324646,495.555145 84.406891,495.771301 
M89.016594,474.306396 
	C89.267471,469.237915 88.080582,464.258118 82.639168,463.326202 
	C75.416260,462.089172 67.951492,462.264343 60.607273,461.833710 
	C60.607273,470.006805 60.607273,477.057556 60.607273,483.993866 
	C67.257454,483.993866 73.553749,484.252045 79.817955,483.914551 
	C85.098953,483.630005 88.361229,480.603973 89.016594,474.306396 
M79.448250,450.590729 
	C84.056053,448.257996 85.395813,444.076019 83.997871,439.717102 
	C83.182838,437.175751 80.454529,433.813324 78.175705,433.457947 
	C72.431671,432.562134 66.454498,433.161316 60.547359,433.161316 
	C60.547359,439.319794 60.547359,445.044830 60.547359,450.919769 
	C66.785370,450.919769 72.726326,450.919769 79.448250,450.590729 
z"/>
<path fill="#034CAE" opacity="1.000000" stroke="none" 
	d="
M385.103149,473.000427 
	C385.103149,480.805145 385.103149,488.110046 385.103149,495.708496 
	C380.418365,495.708496 376.014587,495.708496 371.031677,495.708496 
	C371.031677,488.758118 371.033722,481.821564 371.030945,474.885010 
	C371.029144,470.387268 371.093292,465.887970 370.996948,461.392151 
	C370.863373,455.158722 368.784607,452.051056 364.310242,451.104645 
	C358.600037,449.896881 353.098022,452.169586 350.925262,457.286804 
	C349.726746,460.109650 349.124786,463.369659 349.050507,466.451813 
	C348.818298,476.084686 348.965210,485.726685 348.965210,495.683594 
	C344.283478,495.683594 339.887207,495.683594 335.184540,495.683594 
	C335.184540,469.799805 335.184540,443.904114 335.184540,417.721985 
	C339.651215,417.721985 344.065430,417.721985 348.885834,417.721985 
	C348.885834,427.520569 348.885834,437.101196 348.885834,447.604736 
	C350.388214,446.427704 351.278900,445.881866 351.982513,445.154968 
	C358.424652,438.499634 366.318298,437.417358 374.517761,440.342041 
	C382.481537,443.182648 384.779785,450.200897 384.999451,458.009583 
	C385.135284,462.837067 385.075226,467.670044 385.103149,473.000427 
z"/>
<path fill="#044DAE" opacity="1.000000" stroke="none" 
	d="
M420.100952,471.185547 
	C417.297729,471.185577 414.977325,471.185577 412.689362,471.185577 
	C411.942139,477.047150 414.467743,481.798462 419.249054,483.822357 
	C426.213348,486.770233 433.005005,484.778687 438.989227,477.737946 
	C441.985382,479.573120 445.055237,481.453400 448.084045,483.308594 
	C446.274689,490.427399 438.652954,496.433289 430.251923,496.914062 
	C419.421783,497.533752 408.764648,496.414276 402.409698,486.174805 
	C395.587982,475.183197 395.573364,463.215179 401.357849,451.837952 
	C408.133759,438.510834 429.143188,434.568878 441.042175,443.745392 
	C446.014832,447.580292 448.193909,452.875305 448.850586,458.802856 
	C449.268127,462.571777 448.928680,466.424591 448.928680,471.185516 
	C439.385193,471.185516 429.984497,471.185516 420.100952,471.185547 
M421.570068,462.000183 
	C426.215302,462.000183 430.860535,462.000183 435.526093,462.000183 
	C435.001984,453.495514 431.881531,450.011871 425.018005,449.894257 
	C417.580811,449.766876 413.527496,453.639984 412.608643,462.000183 
	C415.292450,462.000183 417.947632,462.000183 421.570068,462.000183 
z"/>
<path fill="#044DAE" opacity="1.000000" stroke="none" 
	d="
M496.809967,440.931610 
	C506.988342,446.092255 512.624634,458.275574 509.723206,468.867310 
	C509.432556,469.928223 507.100983,471.053406 505.693573,471.083893 
	C496.537506,471.282227 487.375061,471.186035 478.214722,471.186249 
	C476.570221,471.186279 474.925720,471.186249 473.303955,471.186249 
	C472.942657,477.615784 475.461731,482.043762 480.326355,483.943359 
	C487.284668,486.660492 493.737762,484.720825 499.746399,477.735016 
	C502.813171,479.625153 505.976105,481.574554 509.469025,483.727325 
	C506.176392,490.299896 501.449097,494.758301 494.524872,496.168030 
	C479.563141,499.214142 465.192352,494.571960 460.211914,480.556213 
	C454.556793,464.641876 460.323517,447.182770 473.509491,441.358459 
	C481.018097,438.041840 488.734894,438.435577 496.809967,440.931610 
M473.316895,461.721008 
	C480.902985,461.721008 488.489105,461.721008 496.070862,461.721008 
	C495.997559,453.013245 491.850189,449.180359 483.640686,449.973694 
	C477.920868,450.526398 475.211243,453.342377 473.316895,461.721008 
z"/>
<path fill="#054DAF" opacity="1.000000" stroke="none" 
	d="
M145.085266,439.682312 
	C154.767731,442.145599 158.784531,446.892426 159.026443,456.293121 
	C159.219284,463.786072 159.087296,471.287079 159.124680,478.784393 
	C159.154083,484.681458 159.337524,484.855408 165.439270,485.197021 
	C165.593002,485.751831 166.035706,486.443207 165.888870,486.970337 
	C165.083267,489.862396 169.061478,493.734253 164.420685,495.728973 
	C159.678223,497.767395 151.880753,495.997620 149.149719,492.562439 
	C148.234421,491.411102 147.581467,490.051178 146.454254,488.206848 
	C145.382462,489.540649 144.558914,490.634277 143.664856,491.666840 
	C138.366348,497.785980 126.504402,498.830719 119.323540,493.826569 
	C113.315605,489.639740 111.179451,479.633514 114.805061,472.634979 
	C117.616257,467.208557 122.881607,465.484314 128.189529,463.997070 
	C132.504669,462.787964 137.077682,462.340942 141.215530,460.731323 
	C142.995651,460.038818 145.145035,457.144989 144.978821,455.463623 
	C144.803955,453.694519 142.269073,451.099335 140.405502,450.742004 
	C132.796829,449.283051 126.473938,452.494080 120.634232,458.117310 
	C118.536888,455.163544 116.577705,452.404327 114.280396,449.168915 
	C122.674934,439.975586 133.128250,438.126526 145.085266,439.682312 
M127.636993,476.406555 
	C126.280090,483.548187 129.328735,487.005524 136.343857,486.280579 
	C143.906845,485.498993 147.856247,477.442169 144.969727,468.968597 
	C141.596970,469.782349 138.128952,470.287964 134.927048,471.497833 
	C132.428177,472.442017 130.259949,474.261230 127.636993,476.406555 
z"/>
<path fill="#054DAF" opacity="1.000000" stroke="none" 
	d="
M196.909668,450.273254 
	C190.802338,452.238892 185.152725,454.224396 178.523026,456.554321 
	C177.535126,455.162323 175.576599,452.402679 172.739410,448.404907 
	C177.157959,445.831635 181.047638,442.286224 185.511780,441.273682 
	C191.827927,439.841095 198.692108,439.322601 205.096420,440.153137 
	C213.493622,441.242065 217.680267,446.921265 217.972626,455.434753 
	C218.235443,463.088470 218.258469,470.760834 218.055923,478.416199 
	C217.934433,483.007843 218.757828,486.155365 224.316360,485.016113 
	C224.570236,485.709259 224.979996,486.240631 224.863342,486.602112 
	C223.893814,489.606110 228.285980,493.745392 223.297165,495.757477 
	C217.738708,497.999329 210.311676,495.877411 207.462936,491.678925 
	C206.820557,490.732239 206.317963,489.690704 205.316254,487.927521 
	C201.471542,494.703125 195.771698,497.308075 188.587219,496.972748 
	C179.608170,496.553680 173.799026,491.860931 172.325211,483.681641 
	C170.741760,474.893921 174.211197,468.554169 183.044220,465.387665 
	C187.860413,463.661163 193.039169,462.970520 198.000000,461.613770 
	C200.997131,460.794067 204.471725,460.174194 204.295837,455.834442 
	C204.115372,451.381165 200.892242,450.622650 196.909668,450.273254 
M195.891037,486.203461 
	C203.481796,484.338165 206.873428,476.917297 203.821152,468.679962 
	C202.122910,469.294037 200.449112,470.012390 198.710114,470.496399 
	C196.960556,470.983337 195.127731,471.163940 193.363586,471.606934 
	C188.061234,472.938477 185.600204,475.847137 186.080795,480.103424 
	C186.576843,484.496674 189.061935,486.198944 195.891037,486.203461 
z"/>
<path fill="#054EAF" opacity="1.000000" stroke="none" 
	d="
M274.017456,468.000885 
	C274.607269,446.363708 289.985077,434.796936 310.578735,440.039612 
	C316.653076,441.585968 320.518127,444.856720 324.021454,451.676056 
	C320.827484,454.046600 317.561920,456.470306 315.343201,458.117035 
	C312.496765,455.931122 310.236847,453.683838 307.548370,452.227753 
	C299.753815,448.006073 290.916565,452.249969 289.324219,461.245483 
	C288.555664,465.587067 288.706360,470.232635 289.271301,474.633972 
	C290.007660,480.371155 294.317047,484.368744 299.277100,484.995941 
	C305.325226,485.760712 309.968964,483.350433 312.856995,477.949219 
	C313.236969,477.238586 313.623627,476.531525 314.341705,475.204773 
	C317.924530,477.140076 321.334167,478.981842 324.671722,480.784668 
	C321.781891,492.254364 312.488373,496.252991 304.631348,496.899719 
	C291.870392,497.950104 281.640045,493.011902 277.281158,482.903412 
	C275.360229,478.448669 275.056213,473.296692 274.017456,468.000885 
z"/>
<path fill="#0850B0" opacity="1.000000" stroke="none" 
	d="
M543.072205,439.985474 
	C547.024780,439.985565 550.492554,439.985565 554.203125,439.985565 
	C554.203125,443.775665 554.203125,447.200439 554.203125,451.018005 
	C549.045471,451.018005 544.110535,451.018005 538.867920,451.018005 
	C538.867920,460.492493 538.649353,469.588440 538.961914,478.666077 
	C539.114014,483.084564 542.113159,485.114960 546.491089,484.495697 
	C548.428833,484.221558 550.300232,483.477844 552.728027,482.800476 
	C553.768860,485.485474 555.119507,488.147858 555.733582,490.970490 
	C555.968750,492.051605 554.854309,494.083649 553.789673,494.690247 
	C540.534424,502.242554 525.615051,494.602173 524.640747,479.483948 
	C524.044006,470.224426 524.530396,460.895081 524.530396,451.082458 
	C521.482056,451.082458 518.910278,451.082458 516.153198,451.082458 
	C516.153198,447.292267 516.153198,444.009949 516.153198,440.190491 
	C518.612244,440.190491 521.169067,440.190491 524.187012,440.190491 
	C524.187012,436.265778 524.187012,432.851624 524.187012,429.074280 
	C529.092773,428.287506 533.599365,427.564728 538.511719,426.776886 
	C538.511719,431.353699 538.511719,435.316193 538.511719,439.626953 
	C540.061462,439.763245 541.324463,439.874329 543.072205,439.985474 
z"/>
<path fill="#0850B0" opacity="1.000000" stroke="none" 
	d="
M253.266083,496.966003 
	C242.451004,495.543823 237.352570,490.826508 236.761749,480.586365 
	C236.207123,470.973816 236.642914,461.304108 236.642914,451.146667 
	C233.564285,451.146667 230.990051,451.146667 228.187317,451.146667 
	C228.187317,447.237000 228.187317,443.838867 228.187317,440.072510 
	C230.785843,440.072510 233.218063,440.072510 236.136826,440.072510 
	C236.136826,436.334442 236.136826,432.923096 236.136826,429.109924 
	C241.055557,428.302368 245.563339,427.562286 250.486191,426.754059 
	C250.486191,431.279602 250.486191,435.240906 250.486191,439.758179 
	C255.840866,439.758179 260.891937,439.758179 266.192627,439.758179 
	C266.192627,443.739258 266.192627,447.164734 266.192627,450.992065 
	C261.068878,450.992065 256.135925,450.992065 250.865509,450.992065 
	C250.865509,460.471619 250.633698,469.567108 250.962173,478.642334 
	C251.129349,483.261536 254.274902,485.224487 258.961121,484.408325 
	C260.733276,484.099670 262.441650,483.425018 264.709564,482.762115 
	C265.762451,485.473328 267.114136,488.134552 267.730438,490.956421 
	C267.967163,492.040222 266.768127,494.355438 265.809570,494.622040 
	C261.863007,495.719696 257.757477,496.245789 253.266083,496.966003 
z"/>
<path fill="#FBF9FD" opacity="1.000000" stroke="none" 
	d="
M262.068237,330.188782 
	C264.179840,338.360474 257.961487,346.853668 250.874847,345.995911 
	C247.128937,345.542511 242.101303,340.455841 241.435028,336.220825 
	C240.669403,331.354401 242.062088,327.328979 246.549088,324.782013 
	C250.960007,322.278229 255.765137,322.776520 259.378723,326.223938 
	C260.427399,327.224365 261.110931,328.607544 262.068237,330.188782 
z"/>
<path fill="#FBF9FD" opacity="1.000000" stroke="none" 
	d="
M334.864441,345.583557 
	C333.134247,344.251526 331.646149,343.212067 330.344421,341.976288 
	C325.775238,337.638458 325.749115,330.735046 330.214966,326.459473 
	C334.658997,322.204773 341.766022,322.351410 345.800110,326.781006 
	C350.082336,331.483063 349.565155,338.794006 344.551544,342.686646 
	C341.837372,344.793945 339.061493,347.027252 334.864441,345.583557 
z"/>
<path fill="#FBF9FD" opacity="1.000000" stroke="none" 
	d="
M294.232361,351.677216 
	C284.865112,350.629578 281.280487,340.120880 286.266663,333.984863 
	C289.457977,330.057556 293.608093,329.017731 298.302795,330.207611 
	C302.374634,331.239594 305.905060,336.000427 305.871582,340.305420 
	C305.833252,345.227905 303.493835,348.860535 298.957397,350.843262 
	C297.638977,351.419464 296.072021,351.426941 294.232361,351.677216 
z"/>
<path fill="#F8FAFD" opacity="1.000000" stroke="none" 
	d="
M89.000496,474.721680 
	C88.361229,480.603973 85.098953,483.630005 79.817955,483.914551 
	C73.553749,484.252045 67.257454,483.993866 60.607273,483.993866 
	C60.607273,477.057556 60.607273,470.006805 60.607273,461.833710 
	C67.951492,462.264343 75.416260,462.089172 82.639168,463.326202 
	C88.080582,464.258118 89.267471,469.237915 89.000496,474.721680 
z"/>
<path fill="#FAFCFD" opacity="1.000000" stroke="none" 
	d="
M79.057770,450.755249 
	C72.726326,450.919769 66.785370,450.919769 60.547359,450.919769 
	C60.547359,445.044830 60.547359,439.319794 60.547359,433.161316 
	C66.454498,433.161316 72.431671,432.562134 78.175705,433.457947 
	C80.454529,433.813324 83.182838,437.175751 83.997871,439.717102 
	C85.395813,444.076019 84.056053,448.257996 79.057770,450.755249 
z"/>
<path fill="#FBFCFE" opacity="1.000000" stroke="none" 
	d="
M421.086456,462.000183 
	C417.947632,462.000183 415.292450,462.000183 412.608643,462.000183 
	C413.527496,453.639984 417.580811,449.766876 425.018005,449.894257 
	C431.881531,450.011871 435.001984,453.495514 435.526093,462.000183 
	C430.860535,462.000183 426.215302,462.000183 421.086456,462.000183 
z"/>
<path fill="#FBFCFE" opacity="1.000000" stroke="none" 
	d="
M473.225708,461.306641 
	C475.211243,453.342377 477.920868,450.526398 483.640686,449.973694 
	C491.850189,449.180359 495.997559,453.013245 496.070862,461.721008 
	C488.489105,461.721008 480.902985,461.721008 473.225708,461.306641 
z"/>
<path fill="#F7F9FC" opacity="1.000000" stroke="none" 
	d="
M127.790894,476.049072 
	C130.259949,474.261230 132.428177,472.442017 134.927048,471.497833 
	C138.128952,470.287964 141.596970,469.782349 144.969727,468.968597 
	C147.856247,477.442169 143.906845,485.498993 136.343857,486.280579 
	C129.328735,487.005524 126.280090,483.548187 127.790894,476.049072 
z"/>
<path fill="#F7F9FC" opacity="1.000000" stroke="none" 
	d="
M195.515701,486.256348 
	C189.061935,486.198944 186.576843,484.496674 186.080795,480.103424 
	C185.600204,475.847137 188.061234,472.938477 193.363586,471.606934 
	C195.127731,471.163940 196.960556,470.983337 198.710114,470.496399 
	C200.449112,470.012390 202.122910,469.294037 203.821152,468.679962 
	C206.873428,476.917297 203.481796,484.338165 195.515701,486.256348 
z"/>
</svg>